#!OML:ASF I:\Random Stuff\random\construction\7_22_03\Session 2\subj1.ASF
:FULLY-SPECIFIED
:DEGREES
1334
root -10.2152 17.5683 -3.88176 -348.342 102.107 -352.681
lowerback 0.729086 -2.69386 0.990221
upperback 0.722434 -3.50345 4.8273
thorax 0.577683 -1.72331 4.41922
lowerneck -13.0249 -13.3216 -16.0699
upperneck 26.3119 -18.4978 13.2343
head 14.0008 -8.10337 4.60805
rclavicle 7.35503e-015 1.74931e-014
rhumerus -28.0677 6.32231 -70.6792
rradius 46.8857
rwrist 29.778
rhand -38.2149 37.4905
rfingers 7.12502
rthumb -11.2466 7.81195
lclavicle 7.35503e-015 1.74931e-014
lhumerus -32.0116 -6.48981 93.8354
lradius 36.5838
lwrist 20.2456
lhand -26.0599 58.2528
lfingers 7.12502
lthumb 0.487868 -271.768
rfemur -5.42852 16.7685 24.1364
rtibia 16.4437
rfoot -14.5121 -38.2679
rtoes 12.9657
lfemur -11.4647 -15.7799 -13.4858
ltibia 24.2091
lfoot -17.0929 6.3723
ltoes -31.7966
1335
root -10.2295 17.5737 -3.94 -348.082 101.961 -352.448
lowerback 0.681769 -2.69214 0.786533
upperback 0.540831 -3.50396 4.69739
thorax 0.4216 -1.72533 4.40121
lowerneck -12.8682 -13.4214 -16.2797
upperneck 26.2313 -18.5631 13.0618
head 13.947 -8.18573 4.55904
rclavicle -6.75868e-015 4.77083e-014
rhumerus -29.1791 6.33981 -70.9602
rradius 47.4541
rwrist 27.9424
rhand -39.3633 40.3416
rfingers 7.12502
rthumb -12.3539 10.7266
lclavicle -6.75868e-015 4.77083e-014
lhumerus -31.8229 -6.15571 93.6302
lradius 36.3526
lwrist 19.9953
lhand -25.768 57.9799
lfingers 7.12502
lthumb 0.769809 -272.042
rfemur -5.49169 16.6902 23.9125
rtibia 16.4266
rfoot -14.461 -38.0955
rtoes 12.8421
lfemur -11.4269 -15.5967 -13.6784
ltibia 24.0964
lfoot -16.9973 6.30456
ltoes -31.5164
1336
root -10.2457 17.5769 -3.99848 -347.746 101.797 -352.102
lowerback 0.687087 -2.67304 0.694741
upperback 0.3869 -3.48111 4.48991
thorax 0.251147 -1.71504 4.24175
lowerneck -12.8161 -13.4836 -16.3706
upperneck 26.1977 -18.5843 12.8577
head 13.9087 -8.23475 4.48565
rclavicle 2.49475e-014 2.54444e-014
rhumerus -30.2503 6.43994 -71.4147
rradius 47.7786
rwrist 25.9935
rhand -40.2929 42.9257
rfingers 7.12502
rthumb -13.2501 13.3669
lclavicle 2.49475e-014 2.54444e-014
lhumerus -31.5865 -5.80742 93.2644
lradius 36.0537
lwrist 19.4902
lhand -25.3527 57.6061
lfingers 7.12502
lthumb 1.1709 -272.417
rfemur -5.51644 16.259 23.7102
rtibia 16.3612
rfoot -14.0651 -37.6565
rtoes 12.0144
lfemur -11.3595 -15.3505 -13.8502
ltibia 24.0082
lfoot -16.9447 6.13361
ltoes -31.0575
1337
root -10.2627 17.582 -4.05785 -347.226 101.586 -351.543
lowerback 0.735421 -2.63223 0.70991
upperback 0.224776 -3.42791 4.22082
thorax 0.0362012 -1.68902 3.96111
lowerneck -12.7165 -13.5393 -16.5298
upperneck 26.1807 -18.6268 12.7811
head 13.8973 -8.286 4.47256
rclavicle 4.19436e-014 -3.18055e-015
rhumerus -31.3632 6.62986 -72.0518
rradius 47.9284
rwrist 24.2156
rhand -40.8563 44.4955
rfingers 7.12502
rthumb -13.7932 14.9728
lclavicle 4.19436e-014 -3.18055e-015
lhumerus -31.5604 -5.66181 92.8586
lradius 36.0535
lwrist 19.5132
lhand -25.4137 57.7646
lfingers 7.12502
lthumb 1.11201 -272.259
rfemur -5.52609 15.4853 23.5283
rtibia 16.2667
rfoot -13.3932 -36.8728
rtoes 10.6004
lfemur -11.2635 -15.0642 -14.0007
ltibia 23.9504
lfoot -16.8979 5.9916
ltoes -30.7989
1338
root -10.2817 17.5889 -4.12011 -346.545 101.302 -350.821
lowerback 0.75646 -2.55749 0.75246
upperback 0.047925 -3.32988 3.93793
thorax -0.182848 -1.64073 3.65026
lowerneck -12.4331 -13.5864 -16.739
upperneck 26.1122 -18.6868 12.7835
head 13.8453 -8.34977 4.50441
rclavicle -1.39149e-015 2.38542e-015
rhumerus -32.5392 6.91753 -72.8028
rradius 47.8566
rwrist 22.7619
rhand -41.3239 45.4494
rfingers 7.12502
rthumb -14.2438 15.9579
lclavicle -1.39149e-015 2.38542e-015
lhumerus -31.6667 -5.44647 92.4295
lradius 36.144
lwrist 19.5176
lhand -25.5031 57.8069
lfingers 7.12502
lthumb 1.02566 -272.216
rfemur -5.55591 14.5299 23.3256
rtibia 16.1398
rfoot -12.6182 -35.8204
rtoes 8.81509
lfemur -11.1805 -14.7146 -14.1495
ltibia 23.9399
lfoot -16.8795 5.86855
ltoes -30.6383
1339
root -10.3036 17.5964 -4.18141 -345.604 101.035 -349.836
lowerback 0.79208 -2.49045 0.799849
upperback -0.139236 -3.24059 3.67682
thorax -0.417849 -1.59678 3.36066
lowerneck -12.1551 -13.5861 -16.7907
upperneck 26.0741 -18.6704 12.6377
head 13.7542 -8.38117 4.47177
rclavicle 2.67862e-014 -1.59028e-015
rhumerus -33.7392 7.40587 -73.6573
rradius 47.6295
rwrist 21.4203
rhand -41.7604 46.2153
rfingers 7.12502
rthumb -14.6643 16.7538
lclavicle 2.67862e-014 -1.59028e-015
lhumerus -31.7447 -5.04313 91.9506
lradius 36.1333
lwrist 19.3769
lhand -25.4785 57.5111
lfingers 7.12502
lthumb 1.04942 -272.512
rfemur -5.60268 13.3695 23.1651
rtibia 15.9528
rfoot -11.596 -34.5968
rtoes 6.17339
lfemur -11.1544 -14.2528 -14.2356
ltibia 23.996
lfoot -16.9426 5.65359
ltoes -30.4925
1340
root -10.3281 17.6039 -4.23951 -344.283 100.831 -348.455
lowerback 0.891778 -2.4719 0.810064
upperback -0.321966 -3.21223 3.50592
thorax -0.67301 -1.58253 3.1887
lowerneck -12.1432 -13.5395 -16.7877
upperneck 26.242 -18.5227 12.2953
head 13.7504 -8.35546 4.3714
rclavicle -1.98785e-016 1.59028e-014
rhumerus -34.8585 8.17426 -74.518
rradius 47.2846
rwrist 20.0209
rhand -41.9996 46.4683
rfingers 7.12502
rthumb -14.8948 17.0238
lclavicle -1.98785e-016 1.59028e-014
lhumerus -31.825 -4.37028 91.4562
lradius 36.1091
lwrist 19.0488
lhand -25.2724 57.2419
lfingers 7.12502
lthumb 1.24851 -272.782
rfemur -5.65401 12.2039 23.0922
rtibia 15.765
rfoot -10.8768 -33.3093
rtoes 4.53591
lfemur -11.1684 -13.7132 -14.2157
ltibia 24.0906
lfoot -17.0374 5.33292
ltoes -30.341
1341
root -10.3558 17.6109 -4.29647 -342.923 100.612 -347.004
lowerback 1.00305 -2.42318 0.753022
upperback -0.449347 -3.14592 3.3605
thorax -0.87433 -1.54946 3.07914
lowerneck -12.1935 -13.5103 -16.8148
upperneck 26.2996 -18.3999 12.0325
head 13.7319 -8.33531 4.29508
rclavicle 2.62396e-014 -1.11319e-014
rhumerus -35.8675 9.06957 -75.3704
rradius 46.8541
rwrist 18.4852
rhand -41.9513 46.1791
rfingers 7.12502
rthumb -14.8483 16.7311
lclavicle 2.62396e-014 -1.11319e-014
lhumerus -31.8989 -3.83434 91.1292
lradius 36.2741
lwrist 19.149
lhand -25.4866 57.8328
lfingers 7.12502
lthumb 1.04158 -272.19
rfemur -5.7303 11.0743 23.0192
rtibia 15.6829
rfoot -10.4649 -31.9694
rtoes 3.65589
lfemur -11.1372 -13.2909 -14.2014
ltibia 24.1742
lfoot -17.0971 5.11251
ltoes -29.9868
1342
root -10.3868 17.615 -4.3522 -341.983 100.341 -345.91
lowerback 1.20259 -2.30688 0.594583
upperback -0.507059 -2.99328 3.1779
thorax -1.05415 -1.4736 2.98836
lowerneck -12.1662 -13.5575 -16.7773
upperneck 26.0496 -18.4277 11.8936
head 13.6019 -8.37189 4.22299
rclavicle -1.00883e-014 -5.56597e-015
rhumerus -36.8122 9.81819 -76.1957
rradius 46.4057
rwrist 16.9763
rhand -41.589 45.6811
rfingers 7.12502
rthumb -14.4992 16.2077
lclavicle -1.00883e-014 -5.56597e-015
lhumerus -31.8354 -3.37021 90.8272
lradius 36.3103
lwrist 19.1913
lhand -25.5413 58.1754
lfingers 7.12502
lthumb 0.988785 -271.847
rfemur -5.85513 9.80911 22.8663
rtibia 15.7871
rfoot -9.93538 -30.5487
rtoes 1.80871
lfemur -11.013 -12.9272 -14.3046
ltibia 24.2166
lfoot -17.0903 4.97919
ltoes -29.491
1343
root -10.423 17.6135 -4.40847 -341.451 100.082 -345.193
lowerback 1.51866 -2.19397 0.375311
upperback -0.547954 -2.84628 2.98005
thorax -1.27944 -1.39992 2.91987
lowerneck -12.1149 -13.6283 -16.7441
upperneck 25.7131 -18.5178 11.8627
head 13.4568 -8.42668 4.18106
rclavicle 5.87657e-014 -2.18663e-014
rhumerus -37.6871 10.3953 -76.9521
rradius 45.8641
rwrist 15.6831
rhand -40.8751 44.9862
rfingers 7.12502
rthumb -13.8113 15.4647
lclavicle 5.87657e-014 -2.18663e-014
lhumerus -31.7506 -2.84819 90.4865
lradius 36.2187
lwrist 19.2158
lhand -25.4657 58.117
lfingers 7.12502
lthumb 1.06182 -271.906
rfemur -6.07208 8.40201 22.6403
rtibia 16.1001
rfoot -9.41147 -29.0977
rtoes -0.572064
lfemur -10.8554 -12.5773 -14.487
ltibia 24.2044
lfoot -17.0245 4.78894
ltoes -28.8459
